<svg width="26" height="25" viewBox="0 0 26 25" fill="none" xmlns="http://www.w3.org/2000/svg">
<path d="M13.3569 25C10.4403 25 7.85925 24.1146 5.61388 22.3438C3.36851 20.5729 1.91017 18.3102 1.23888 15.5556C1.14629 15.2083 1.21573 14.89 1.44721 14.6007C1.67869 14.3113 1.99119 14.1435 2.38471 14.0972C2.75508 14.0509 3.09073 14.1204 3.39166 14.3056C3.69258 14.4907 3.90092 14.7685 4.01666 15.1389C4.57221 17.2222 5.71804 18.9236 7.45416 20.2431C9.19027 21.5625 11.1579 22.2222 13.3569 22.2222C16.0653 22.2222 18.3627 21.2789 20.2493 19.3924C22.1359 17.5058 23.0792 15.2083 23.0792 12.5C23.0792 9.79167 22.1359 7.49421 20.2493 5.60764C18.3627 3.72107 16.0653 2.77778 13.3569 2.77778C11.7597 2.77778 10.2667 3.14815 8.87777 3.88889C7.48888 4.62963 6.3199 5.64815 5.37082 6.94444H7.80138C8.1949 6.94444 8.52476 7.07755 8.79096 7.34375C9.05717 7.60995 9.19027 7.93982 9.19027 8.33333C9.19027 8.72685 9.05717 9.05671 8.79096 9.32292C8.52476 9.58912 8.1949 9.72222 7.80138 9.72222H2.24582C1.8523 9.72222 1.52244 9.58912 1.25624 9.32292C0.990035 9.05671 0.856934 8.72685 0.856934 8.33333V2.77778C0.856934 2.38426 0.990035 2.0544 1.25624 1.78819C1.52244 1.52199 1.8523 1.38889 2.24582 1.38889C2.63934 1.38889 2.9692 1.52199 3.23541 1.78819C3.50161 2.0544 3.63471 2.38426 3.63471 2.77778V4.65278C4.81527 3.1713 6.25624 2.02546 7.95763 1.21528C9.65902 0.405093 11.4588 0 13.3569 0C15.093 0 16.7192 0.329861 18.2354 0.989583C19.7516 1.64931 21.0711 2.54051 22.1937 3.66319C23.3164 4.78588 24.2076 6.10532 24.8674 7.62153C25.5271 9.13773 25.8569 10.7639 25.8569 12.5C25.8569 14.2361 25.5271 15.8623 24.8674 17.3785C24.2076 18.8947 23.3164 20.2141 22.1937 21.3368C21.0711 22.4595 19.7516 23.3507 18.2354 24.0104C16.7192 24.6701 15.093 25 13.3569 25ZM14.7458 11.9444L18.218 15.4167C18.4727 15.6713 18.6 15.9954 18.6 16.3889C18.6 16.7824 18.4727 17.1065 18.218 17.3611C17.9634 17.6157 17.6393 17.7431 17.2458 17.7431C16.8523 17.7431 16.5282 17.6157 16.2736 17.3611L12.3847 13.4722C12.2458 13.3333 12.1417 13.1771 12.0722 13.0035C12.0028 12.8299 11.968 12.6505 11.968 12.4653V6.94444C11.968 6.55093 12.1011 6.22107 12.3674 5.95486C12.6336 5.68866 12.9634 5.55556 13.3569 5.55556C13.7505 5.55556 14.0803 5.68866 14.3465 5.95486C14.6127 6.22107 14.7458 6.55093 14.7458 6.94444V11.9444Z" fill="#8C8D89"/>
</svg>
