<svg width="23" height="25" viewBox="0 0 23 25" fill="none" xmlns="http://www.w3.org/2000/svg">
<path d="M2.85714 22.1429H7.14286V15C7.14286 14.5952 7.27976 14.256 7.55357 13.9821C7.82738 13.7083 8.16667 13.5714 8.57143 13.5714H14.2857C14.6905 13.5714 15.0298 13.7083 15.3036 13.9821C15.5774 14.256 15.7143 14.5952 15.7143 15V22.1429H20V9.28572L11.4286 2.85714L2.85714 9.28572V22.1429ZM0 22.1429V9.28572C0 8.83333 0.10119 8.40476 0.303571 8C0.505952 7.59524 0.785714 7.26191 1.14286 7L9.71429 0.571429C10.2143 0.190476 10.7857 0 11.4286 0C12.0714 0 12.6429 0.190476 13.1429 0.571429L21.7143 7C22.0714 7.26191 22.3512 7.59524 22.5536 8C22.756 8.40476 22.8571 8.83333 22.8571 9.28572V22.1429C22.8571 22.9286 22.5774 23.6012 22.0179 24.1607C21.4583 24.7202 20.7857 25 20 25H14.2857C13.881 25 13.5417 24.8631 13.2679 24.5893C12.994 24.3155 12.8571 23.9762 12.8571 23.5714V16.4286H10V23.5714C10 23.9762 9.8631 24.3155 9.58929 24.5893C9.31548 24.8631 8.97619 25 8.57143 25H2.85714C2.07143 25 1.39881 24.7202 0.839286 24.1607C0.279762 23.6012 0 22.9286 0 22.1429Z" fill="#8C8D89"/>
</svg>
