<svg width="31" height="24" viewBox="0 0 31 24" fill="none" xmlns="http://www.w3.org/2000/svg">
<path d="M3.85693 24C3.03193 24 2.32568 23.7063 1.73818 23.1188C1.15068 22.5313 0.856934 21.825 0.856934 21V15.9375C0.856934 15.6625 0.944434 15.425 1.11943 15.225C1.29443 15.025 1.51943 14.9 1.79443 14.85C2.39443 14.65 2.88818 14.2875 3.27568 13.7625C3.66318 13.2375 3.85693 12.65 3.85693 12C3.85693 11.35 3.66318 10.7625 3.27568 10.2375C2.88818 9.7125 2.39443 9.35 1.79443 9.15C1.51943 9.1 1.29443 8.975 1.11943 8.775C0.944434 8.575 0.856934 8.3375 0.856934 8.0625V3C0.856934 2.175 1.15068 1.46875 1.73818 0.88125C2.32568 0.29375 3.03193 0 3.85693 0H27.8569C28.6819 0 29.3882 0.29375 29.9757 0.88125C30.5632 1.46875 30.8569 2.175 30.8569 3V8.0625C30.8569 8.3375 30.7694 8.575 30.5944 8.775C30.4194 8.975 30.1944 9.1 29.9194 9.15C29.3194 9.35 28.8257 9.7125 28.4382 10.2375C28.0507 10.7625 27.8569 11.35 27.8569 12C27.8569 12.65 28.0507 13.2375 28.4382 13.7625C28.8257 14.2875 29.3194 14.65 29.9194 14.85C30.1944 14.9 30.4194 15.025 30.5944 15.225C30.7694 15.425 30.8569 15.6625 30.8569 15.9375V21C30.8569 21.825 30.5632 22.5313 29.9757 23.1188C29.3882 23.7063 28.6819 24 27.8569 24H3.85693ZM3.85693 21H27.8569V17.175C26.9319 16.625 26.2007 15.8938 25.6632 14.9813C25.1257 14.0688 24.8569 13.075 24.8569 12C24.8569 10.925 25.1257 9.93125 25.6632 9.01875C26.2007 8.10625 26.9319 7.375 27.8569 6.825V3H3.85693V6.825C4.78193 7.375 5.51318 8.10625 6.05068 9.01875C6.58818 9.93125 6.85693 10.925 6.85693 12C6.85693 13.075 6.58818 14.0688 6.05068 14.9813C5.51318 15.8938 4.78193 16.625 3.85693 17.175V21ZM15.8569 19.5C16.2819 19.5 16.6382 19.3563 16.9257 19.0688C17.2132 18.7813 17.3569 18.425 17.3569 18C17.3569 17.575 17.2132 17.2188 16.9257 16.9313C16.6382 16.6438 16.2819 16.5 15.8569 16.5C15.4319 16.5 15.0757 16.6438 14.7882 16.9313C14.5007 17.2188 14.3569 17.575 14.3569 18C14.3569 18.425 14.5007 18.7813 14.7882 19.0688C15.0757 19.3563 15.4319 19.5 15.8569 19.5ZM15.8569 13.5C16.2819 13.5 16.6382 13.3563 16.9257 13.0688C17.2132 12.7813 17.3569 12.425 17.3569 12C17.3569 11.575 17.2132 11.2188 16.9257 10.9313C16.6382 10.6438 16.2819 10.5 15.8569 10.5C15.4319 10.5 15.0757 10.6438 14.7882 10.9313C14.5007 11.2188 14.3569 11.575 14.3569 12C14.3569 12.425 14.5007 12.7813 14.7882 13.0688C15.0757 13.3563 15.4319 13.5 15.8569 13.5ZM15.8569 7.5C16.2819 7.5 16.6382 7.35625 16.9257 7.06875C17.2132 6.78125 17.3569 6.425 17.3569 6C17.3569 5.575 17.2132 5.21875 16.9257 4.93125C16.6382 4.64375 16.2819 4.5 15.8569 4.5C15.4319 4.5 15.0757 4.64375 14.7882 4.93125C14.5007 5.21875 14.3569 5.575 14.3569 6C14.3569 6.425 14.5007 6.78125 14.7882 7.06875C15.0757 7.35625 15.4319 7.5 15.8569 7.5Z" fill="#8C8D89"/>
</svg>
